HIERARCHY
ROOT SpineBase
{
  OFFSET 0.000000 0.000000 0.000000
  CHANNELS 6 Xposition Yposition Zposition Zrotation Xrotation Yrotation
  JOINT SpineMid
  {
    OFFSET 0.000000 29.411276 0.000000
    CHANNELS 3 Zrotation Xrotation Yrotation
    JOINT SpineShoulder
    {
      OFFSET 0.042398 21.890765 -0.706735
      CHANNELS 3 Zrotation Xrotation Yrotation
      JOINT Neck
      {
        OFFSET 0.031461 7.268124 -0.559933
        CHANNELS 3 Zrotation Xrotation Yrotation
        JOINT Head
        {
          OFFSET -4.206139 13.502315 -0.384504
          CHANNELS 3 Zrotation Xrotation Yrotation
          End Site
          {
            OFFSET 0 0 0
          }
        }
      }
      JOINT ShoulderLeft
      {
        OFFSET -16.460688 -4.498886 4.783057
        CHANNELS 3 Zrotation Xrotation Yrotation
        JOINT ElbowLeft
        {
          OFFSET -1.476777 -26.869822 2.468280
          CHANNELS 3 Zrotation Xrotation Yrotation
          JOINT WristLeft
          {
            OFFSET 0.744813 -21.798771 -6.707120
            CHANNELS 3 Zrotation Xrotation Yrotation
            JOINT HandLeft
            {
              OFFSET 0.880791 -1.671392 -0.401845
              CHANNELS 3 Zrotation Xrotation Yrotation
              JOINT HandTipLeft
              {
                OFFSET 1.236916 -7.691457 -1.118354
                CHANNELS 3 Zrotation Xrotation Yrotation
                End Site
                {
                  OFFSET 0 0 0
                }
              }
              JOINT ThumbLeft
              {
                OFFSET 3.275189 2.928574 -3.165107
                CHANNELS 3 Zrotation Xrotation Yrotation
                End Site
                {
                  OFFSET 0 0 0
                }
              }
            }
          }
        }
      }
      JOINT ShoulderRight
      {
        OFFSET 14.625599 -2.816258 -6.927215
        CHANNELS 3 Zrotation Xrotation Yrotation
        JOINT ElbowRight
        {
          OFFSET 6.750135 -23.920037 -0.014061
          CHANNELS 3 Zrotation Xrotation Yrotation
          JOINT WristRight
          {
            OFFSET -0.232914 -22.248397 -4.569223
            CHANNELS 3 Zrotation Xrotation Yrotation
            JOINT HandRight
            {
              OFFSET -2.343764 -5.368904 0.258717
              CHANNELS 3 Zrotation Xrotation Yrotation
              JOINT HandTipRight
              {
                OFFSET -0.221955 -5.571311 0.662161
                CHANNELS 3 Zrotation Xrotation Yrotation
                End Site
                {
                  OFFSET 0 0 0
                }
              }
              JOINT ThumbRight
              {
                OFFSET -2.874269 1.610613 -2.400333
                CHANNELS 3 Zrotation Xrotation Yrotation
                End Site
                {
                  OFFSET 0 0 0
                }
              }
            }
          }
        }
      }
    }
  }
  JOINT HipLeft
  {
    OFFSET -6.485759 0.366418 -1.256166
    CHANNELS 3 Zrotation Xrotation Yrotation
    JOINT KneeLeft
    {
      OFFSET 3.704655 -28.340277 4.534419
      CHANNELS 3 Zrotation Xrotation Yrotation
      JOINT AnkleLeft
      {
        OFFSET 4.308349 -32.746354 4.824038
        CHANNELS 3 Zrotation Xrotation Yrotation
        JOINT FootLeft
        {
          OFFSET 3.679973 -6.887178 -6.561874
          CHANNELS 3 Zrotation Xrotation Yrotation
          End Site
          {
            OFFSET 0 0 0
          }
        }
      }
    }
  }
  JOINT HipRight
  {
    OFFSET 7.132912 1.517389 -5.416943
    CHANNELS 3 Zrotation Xrotation Yrotation
    JOINT KneeRight
    {
      OFFSET 6.576850 -28.176671 2.464175
      CHANNELS 3 Zrotation Xrotation Yrotation
      JOINT AnkleRight
      {
        OFFSET 1.639640 -33.544871 5.779053
        CHANNELS 3 Zrotation Xrotation Yrotation
        JOINT FootRight
        {
          OFFSET -0.959293 -7.933903 -5.286822
          CHANNELS 3 Zrotation Xrotation Yrotation
          End Site
          {
            OFFSET 0 0 0
          }
        }
      }
    }
  }
}
MOTION
Frames: 10
Frame Time: 0.033333
-29.807467 69.359105 345.419991 -0.093346 2.611458 23.253692 0.056516 0.202419 -23.261518 -0.318549 0.242534 -0.044778 -10.092513 -4.302737 -1.342634 0.000000 0.000000 0.000000 6.033950 29.280558 -2.642785 64.415487 22.559161 -14.829687 76.324599 -55.060483 89.356264 61.440103 45.558880 -63.498881 0.000000 0.000000 0.000000 0.000000 0.000000 0.000000 -29.333061 16.203022 9.825051 -119.737258 -12.634105 -38.032622 43.101848 -47.320088 -50.292758 -48.404600 -12.331672 -15.327753 0.000000 0.000000 0.000000 0.000000 0.000000 0.000000 -2.477162 1.005962 -23.400154 1.656041 -3.194059 -0.134098 -2.964366 0.776099 4.331075 0.000000 0.000000 0.000000 -4.772325 -3.350213 -24.293751 3.113199 2.398763 0.763667 -5.954818 15.269203 2.658614 0.000000 0.000000 0.000000
-29.847268 69.278686 345.384131 -0.190411 2.689131 23.195993 0.032872 0.184014 -23.205347 -0.323410 0.238174 -0.050294 -9.159291 -4.736832 -1.413791 0.000000 0.000000 0.000000 7.852832 30.181722 -3.005023 61.512746 22.246044 -14.104884 79.982301 -53.439766 90.932904 58.540360 49.340206 -62.965782 0.000000 0.000000 0.000000 0.000000 0.000000 0.000000 -28.391785 15.985193 9.578258 -120.753441 -12.721380 -37.913241 41.860042 -46.318130 -50.349894 -45.753781 -9.460355 -15.097993 0.000000 0.000000 0.000000 0.000000 0.000000 0.000000 -2.333359 0.907391 -23.323232 1.572013 -3.327914 -0.167678 -6.337586 6.201540 10.597041 0.000000 0.000000 0.000000 -4.462629 -3.412649 -24.173408 2.910455 2.247302 0.719070 -6.396354 16.074293 2.919311 0.000000 0.000000 0.000000
-29.866492 69.207947 345.353357 -0.259574 2.748863 23.104077 -0.001904 0.177177 -23.115519 -0.305147 0.227146 -0.052881 -8.281965 -5.075202 -1.450134 0.000000 0.000000 0.000000 8.438903 30.056991 -3.058074 59.056275 23.714207 -14.689866 86.517903 -52.683687 95.675012 62.784694 56.591069 -71.256099 0.000000 0.000000 0.000000 0.000000 0.000000 0.000000 -28.519597 16.348805 9.839645 -120.893675 -12.278780 -38.270246 41.794610 -47.065892 -51.005364 -46.128899 -5.573855 -10.614605 0.000000 0.000000 0.000000 0.000000 0.000000 0.000000 -2.233691 0.812253 -23.218893 1.514102 -3.409152 -0.189393 -8.872906 9.519441 14.885710 0.000000 0.000000 0.000000 -4.230771 -3.410226 -24.023021 2.779441 2.085458 0.676592 -6.773140 16.393702 3.171563 0.000000 0.000000 0.000000
-29.871825 69.136246 345.318657 -0.309596 2.807278 22.943065 -0.034366 0.158737 -22.956085 -0.288683 0.211209 -0.054493 -7.526984 -5.275250 -1.444496 0.000000 0.000000 0.000000 8.256628 29.911968 -2.994349 56.710278 24.266077 -14.289417 90.240939 -52.000884 96.783843 62.763195 59.749861 -72.500031 0.000000 0.000000 0.000000 0.000000 0.000000 0.000000 -28.099049 16.301350 9.759735 -121.400664 -12.262295 -38.251470 41.110393 -46.189915 -50.827875 -45.433086 -0.175084 -6.489229 0.000000 0.000000 0.000000 0.000000 0.000000 0.000000 -2.185832 0.692753 -23.055373 1.468770 -3.438873 -0.202281 -10.026805 10.959604 16.803673 0.000000 0.000000 0.000000 -4.052331 -3.401556 -23.812354 2.151317 1.320010 0.531633 -9.356211 24.405249 5.188106 0.000000 0.000000 0.000000
-29.866659 69.073601 345.278487 -0.340129 2.874615 22.783736 -0.055288 0.145943 -22.797743 -0.275427 0.210514 -0.055300 -6.939141 -5.489055 -1.451109 0.000000 0.000000 0.000000 9.520696 30.262418 -3.233611 55.529391 23.378515 -13.894084 92.197785 -50.978590 97.678178 65.926883 49.896935 -72.784687 0.000000 0.000000 0.000000 0.000000 0.000000 0.000000 -27.686054 16.058511 9.561649 -121.721862 -12.443412 -38.058228 40.399019 -45.417005 -50.605440 -45.527278 2.967988 -3.743448 0.000000 0.000000 0.000000 0.000000 0.000000 0.000000 -2.195929 0.533075 -22.905345 1.363411 -3.424724 -0.221958 -9.342577 11.482978 16.393125 0.000000 0.000000 0.000000 -3.965785 -3.454921 -23.633091 2.027800 1.172505 0.499965 -13.947119 33.553758 8.426903 0.000000 0.000000 0.000000
-29.852523 69.023942 345.241825 -0.353205 2.936647 22.612129 -0.090415 0.123013 -22.627567 -0.273449 0.195194 -0.056833 -6.533172 -5.524634 -1.416695 0.000000 0.000000 0.000000 8.356336 30.070341 -3.013255 57.574840 22.357422 -13.285798 86.937128 -51.083303 92.755937 67.339872 46.925238 -74.412392 0.000000 0.000000 0.000000 0.000000 0.000000 0.000000 -27.436855 15.823221 9.394773 -121.802385 -12.669376 -37.846717 40.118842 -44.231921 -49.901296 -46.062672 7.219556 0.372370 0.000000 0.000000 0.000000 0.000000 0.000000 0.000000 -2.226614 0.392092 -22.744578 1.382108 -3.357428 -0.209466 -8.246087 9.604204 14.295816 0.000000 0.000000 0.000000 -3.930427 -3.461950 -23.442813 1.949355 0.975548 0.465263 -17.347740 40.007866 11.079369 0.000000 0.000000 0.000000
-29.827981 68.986843 345.203260 -0.348795 2.991802 22.434310 -0.133033 0.086383 -22.451247 -0.275962 0.173409 -0.058066 -6.314002 -5.402768 -1.350517 0.000000 0.000000 0.000000 8.275090 29.984190 -2.982730 58.721796 21.438316 -13.047161 79.503353 -50.341652 85.714581 64.891186 43.335758 -70.700829 0.000000 0.000000 0.000000 0.000000 0.000000 0.000000 -27.404059 15.599695 9.264147 -121.622104 -13.095614 -38.159499 40.685394 -42.364476 -48.367463 -46.687631 4.948431 -1.086052 0.000000 0.000000 0.000000 0.000000 0.000000 0.000000 -2.271199 0.296942 -22.575925 1.462449 -3.304021 -0.186686 -6.016395 6.025278 10.097657 0.000000 0.000000 0.000000 -4.023314 -3.491322 -23.279860 1.990213 0.914066 0.461585 -18.497094 41.881235 12.043181 0.000000 0.000000 0.000000
-29.801868 68.936708 345.163211 -0.344965 3.037108 22.276368 -0.167500 0.039365 -22.294221 -0.269579 0.145702 -0.057872 -6.283731 -5.056008 -1.225710 0.000000 0.000000 0.000000 8.243936 30.337206 -3.025849 59.793723 20.430073 -12.470065 80.353156 -50.233095 86.720435 67.280161 36.353914 -70.783670 0.000000 0.000000 0.000000 0.000000 0.000000 0.000000 -27.743530 15.550201 9.285413 -123.948142 -12.726816 -39.845084 41.768920 -41.878545 -49.500486 -48.859644 -0.154751 -3.547741 0.000000 0.000000 0.000000 0.000000 0.000000 0.000000 -2.310202 0.224368 -22.425708 1.484203 -3.273092 -0.178594 -2.858467 0.375321 3.881050 0.000000 0.000000 0.000000 -4.214202 -3.567955 -23.171394 2.087955 0.994782 0.484291 -17.044288 40.276152 10.932480 0.000000 0.000000 0.000000
-29.772511 68.897724 345.129193 -0.338659 3.075165 22.122448 -0.203414 0.000701 -22.141498 -0.271484 0.120542 -0.058625 -6.255912 -4.655860 -1.080315 0.000000 0.000000 0.000000 9.532493 30.815076 -3.299954 58.287446 19.967519 -12.206472 85.266802 -49.584837 90.487476 68.074877 36.156007 -72.661710 0.000000 0.000000 0.000000 0.000000 0.000000 0.000000 -28.226799 15.723364 9.464321 -122.617560 -12.531152 -38.700091 41.578761 -44.225957 -50.566597 -50.844844 -3.311889 -4.449450 0.000000 0.000000 0.000000 0.000000 0.000000 0.000000 -2.347305 0.172627 -22.278171 1.441400 -3.268893 -0.186834 0.888457 -7.462024 -4.267304 0.000000 0.000000 0.000000 -4.485272 -3.692156 -23.097102 2.232444 1.206548 0.530799 -13.434177 33.887371 8.252368 0.000000 0.000000 0.000000
-29.747357 68.883861 345.108149 -0.344607 3.094200 22.070933 -0.237811 -0.016712 -22.091605 -0.275919 0.100289 -0.060465 -6.123659 -4.200752 -0.902285 0.000000 0.000000 0.000000 9.359349 31.814814 -3.411140 57.944386 19.056133 -10.802532 88.033777 -49.313710 92.235800 69.447004 40.658094 -77.623683 0.000000 0.000000 0.000000 0.000000 0.000000 0.000000 -29.231057 16.104592 9.861604 -117.810088 -12.688536 -36.273814 38.395901 -47.005932 -50.767589 -53.618124 -0.391355 1.429092 0.000000 0.000000 0.000000 0.000000 0.000000 0.000000 -2.367760 0.180520 -22.229146 1.419014 -3.288750 -0.194248 1.045041 -8.862748 -5.232002 0.000000 0.000000 0.000000 -4.610923 -3.696489 -23.071925 2.294143 1.179825 0.533990 -10.463181 27.556084 6.264247 0.000000 0.000000 0.000000
